<?xml version="1.0" encoding="utf-8"?>
<!-- Generator: Adobe Illustrator 16.0.0, SVG Export Plug-In . SVG Version: 6.00 Build 0)  -->
<!DOCTYPE svg PUBLIC "-//W3C//DTD SVG 1.1//EN" "http://www.w3.org/Graphics/SVG/1.1/DTD/svg11.dtd">
<svg version="1.1" id="Laag_1" xmlns="http://www.w3.org/2000/svg" xmlns:xlink="http://www.w3.org/1999/xlink" x="0px" y="0px"
	 width="211px" height="211px" viewBox="0 0 211 211" style="enable-background:new 0 0 211 211;" xml:space="preserve">
<g>
	<g>
		<path style="fill:#D3862B;" d="M113.1,80.1c-6.2,24.6-13.3,57.4-8.3,82.8c3.3,2.7,5.5,6.7,7.2,10.4c25.4-33.8,30.2-55.9,38.4-97.7
			l0.1,0c6.4-11.9,8.2-33.8,10.1-47c-4.1,4.9-39.7,43.3-43.9,38.4C115.7,71.5,114.2,75.8,113.1,80.1C113,80.5,113.3,79.2,113.1,80.1
			z M129.2,67.3c6.5-4.3,25.2-31.4,18.4-8.3C137.3,93.8,139.4,60.5,129.2,67.3C130.8,66.2,128.5,67.8,129.2,67.3z M123.3,125.7
			c1.8,0.1,3.4,2.3,3.4,4.3C128.2,141.2,110.5,124.7,123.3,125.7C125.1,125.8,121.4,125.5,123.3,125.7z"/>
		<path style="fill:#535D47;" d="M91.3,180.2c10.3,8.8,22,1.6,14.6-10.7C97.3,155,87.5,177.8,91.3,180.2z"/>
		<polygon style="fill:#D3862B;" points="46.6,81.6 46.7,81.6 46.6,81.6 		"/>
		<path style="fill:#D3862B;" d="M86.3,125.3c-2-12.8-3.9-47.4-13-57.3c-15.2,4-40-25.4-53.6-35.5c3.9,13.4,8.3,26.6,11.9,40l0.1,0
			C37,90.9,42.2,109.4,47.5,128c5.6,19.8,26.4,33.7,40.6,48.1C89,158.5,89.1,143.7,86.3,125.3z M46.7,81.6c0.1-0.1,0.3-0.1,0.3-0.2
			c0,0,0,0,0,0c0,0,0,0,0,0C46.9,81.4,46.8,81.4,46.7,81.6C46.5,81.6,46.5,81.6,46.7,81.6c-9.2,5-14.9-21-13.6-25.7
			C30.9,63,74.9,66.4,46.7,81.6z M73.5,134.2c-2.3-0.9-7.6-7.7-0.5-7.8C75.4,127.5,80.5,134.1,73.5,134.2z"/>
		<path style="fill:#535D47;" d="M54.4,74.5c-6.2-4.6-11.7-9.8-17.7-14.7C42.5,74,37.9,84.5,54.4,74.5
			C54.4,74.5,54.4,74.6,54.4,74.5z"/>
		<path style="opacity:0.9;fill:#D3862B;" d="M76,67.2c10,31.3,11.7,63.6,18.2,95.6c2.2-1.4,4.7-1.9,7.6-1.5
			c-1.1-24.5,1.8-49.4,6.8-73.3c2-10.4,11.8-23.5-3.5-25.2C100.4,62.2,75.1,64.1,76,67.2z M95.7,75.1c0.2-0.6,0.4-1.3,0.7-1.8
			c2,3.6,2.2,7.8,0.5,11.6C95.2,81.9,94.7,78.4,95.7,75.1C95.8,74.6,95.4,76.2,95.7,75.1z M91.4,81.4c0.2-0.6,0.5-1.1,0.8-1.5
			c1.8,3.1,1.8,6.8,0,9.9C90.7,87.3,90.3,84.2,91.4,81.4C91.5,81,91,82.4,91.4,81.4z"/>
		<path style="fill:#535D47;" d="M135.1,70.7c0.9,0.7,1.9,1.3,2.9,1.8c1.1,0.6,2.1,1.2,3.2,2c0.2-0.9,0.4-1.8,0.7-2.7
			c0.5-1.9,0.9-3.8,1.3-5.7c0.1-0.6,0.2-1.3,0.3-1.9c0.2-1.1,0.4-2.5,1-3.8c0.6-1.5,0.8-3,0.9-4.8c-1.9,2.1-3.8,3.9-5.6,5.8
			c-0.7,0.6-1.3,1.3-1.9,1.9c-0.8,0.8-1.6,1.6-2.5,2.3c-1.1,1-2.2,2-3.2,3.1c0,0,0,0,0.1,0C133.3,69.5,134.2,70.1,135.1,70.7z"/>
		<g>
			<path style="fill:#3C3B32;" d="M139.6,152c1.1-1.3,2-2.7,3.1-4.3c2.2-3.3,4.6-7.2,6-11.7c0.2-0.7,0.5-1.5,0.9-2.2
				c0.4-0.9,0.8-1.8,1-2.8c0.6-2.5,0.9-5.2,0.9-8c0-3.5,0.5-6.9,1.1-10.3c0.3-2,0.7-4,0.9-6.1c0.5-4.3,0.7-7.8,0.8-11.1
				c0.1-3-0.2-6-0.4-8.9c-0.1-0.8-0.1-1.6-0.2-2.4l-0.1-0.8c-0.1-1.5-0.3-3-0.1-4.4c0.3-2.8,0.8-5.6,1.4-8.6
				c0.3-1.6,0.7-3.1,1.1-4.7c0.2-0.8,0.4-1.6,0.6-2.4c0.4-1.6,0.8-3.3,1.1-4.9c0.4-1.7,0.8-3.3,1.2-5c0.2-0.9,0.4-1.8,0.6-2.6
				c0.5-2.2,1-4.4,1.5-6.7c0.3-1.3,0.5-2.7,0.6-3.9c0.2-1.6,0.4-3.3,0.8-4.9c0.4-1.7,0.7-3.5,1-5.2c0.2-1,0.4-2.1,0.6-3.1
				c0.3-1.4-0.8-2-1.2-2.3c-0.8-0.5-1.6-0.4-2.3,0.3c-0.8,0.7-1.5,1.5-2.3,2.2c-1.4,1.4-2.9,2.8-4.4,4.3c-0.7,0.7-1.3,1.5-1.8,2.2
				c-0.5,0.7-1,1.3-1.5,1.9c-2.1,2.3-4.5,4.6-7.1,7c-0.5,0.4-0.9,0.9-1.3,1.4c-0.5,0.5-0.9,1-1.4,1.5c-2,1.6-4,3.3-5.8,5.1
				c-1.8,1.8-3.8,3.6-5.6,5.3c-0.9,0.8-1.8,1.6-2.7,2.4c-0.8,0.7-1.6,1.4-2.4,2c-1.4,1.1-2.8,2.2-4,3.7c-0.4,0.5-1,0.5-1.6,0.1
				c-0.9-0.6-2-1.1-3.2-1.3c-0.9-0.2-1.7-0.4-2.3-0.7c-4.7-2.3-9.7-2.3-14.6-2.3l-0.7,0c-3.4,0-6.8,0.4-9.9,0.8
				c-5.7,0.7-12.2,1.8-17.9,5.6c-0.2,0.2-0.3,0.2-0.6,0c-0.9-0.6-1.8-1.1-2.7-1.7c-1.8-1.1-3.7-2.3-5.4-3.6c-1-0.8-2.1-1.6-3.2-2.4
				c-2.2-1.6-4.4-3.2-6.3-5.2c-1.7-1.7-3.7-3-5.6-4.3c-0.6-0.4-1.3-0.8-1.9-1.2c-1.6-1.1-3.2-2.3-4.8-3.5c-1-0.8-2.1-1.5-3.1-2.3
				c-1.9-1.4-3.7-3-5.5-4.5c-2.2-1.9-4.4-3.9-6.9-5.5c-0.6-0.4-1.2-0.9-1.8-1.4c-0.9-0.8-1.8-1.6-3-2.2c-0.5-0.2-0.9-0.4-1.4-0.4
				c-0.4,0-0.8,0.1-1.2,0.4c-0.7,0.5-0.9,1.4-0.5,2.5c0.2,0.8,0.4,1.5,0.6,2.3c0.2,1.1,0.4,2.2,0.9,3.3c0.7,1.7,1.3,3.2,1.7,4.8
				c0.8,3.8,2.2,7.4,3.5,11c0.3,0.7,0.5,1.5,0.8,2.2c1.2,3.2,2.4,6.4,3.1,9.8c0.2,1.1,0.6,2.2,0.9,3.3c0.7,2.4,1.3,4.6,1.4,6.9
				c0,0.5,0.1,0.9,0.1,1.4c0,0.3,0.1,0.5,0.1,0.8c0.1,0.7,0.2,1.5,0.3,2.2c0.2,1,0.4,2,0.4,2.9c0,2.2,0,4.5,0.3,6.9
				c0.2,1.3,0.2,2.7,0.3,4c0.1,1.6,0.1,3.2,0.4,4.8l0.1,0.7c0.4,2.3,0.7,4.7,0.7,6.9c0,2.9,0.5,5.7,0.9,8.4c0.4,2.4,0.8,4.9,0.9,7.4
				c0.1,2.2,0.3,4.5,0.8,7c0.1,0.7,0.3,1.5,0.4,2.3c0.4,2.8,0.8,5.8,3.1,8.2c0,0,0,0,0,0c2.2,3.6,4.4,6.3,6.9,8.6
				c0.6,0.5,1.9,1.2,2.1,2c1,1.2,1.5,1.9,2.6,2.9c0,0,0-0.1,0-0.1c1.6,1.6,3.4,3.1,5.1,4.6c1.1,0.9,2.1,1.8,3.2,2.8
				c1.4,1.2,2.8,2.5,4.2,3.7c0.8,0.7,1.6,1.4,2.4,2.1c0.7,0.6,1.3,1.2,1.9,1.8c1.4,1.4,2.9,2.8,4.7,3.9c1,0.6,1.9,1.4,2.7,2.1
				c0.3,0.2,0.5,0.4,0.8,0.7c1.8,1.5,3.9,2.7,5.9,3.9c1.6,1,3.3,1.9,4.8,3.1c1.8,1.3,3.8,2.4,5.8,3.3c0.5,0.2,1,0.5,1.4,0.7
				c0.6,0.3,1.1,0.5,1.7,0.8c0.4,0.2,0.8,0.4,1.2,0.6c0.3,0.2,0.6,0.3,1,0.5c1,0.5,2,0.9,3.2,1c0.3,0,0.6,0,0.9,0c1.5,0,2.8-0.3,4-1
				l0.1-0.1c0.2-0.1,0.3-0.2,0.5-0.2c2.1-0.5,3.8-1.8,5.3-3c0.3-0.3,0.7-0.6,1-0.8c0.9-0.7,1.7-1.4,2.4-2.2c0.4-0.5,0.8-0.9,1.3-1.4
				c0.2-0.2,0.4-0.4,0.6-0.6c0.6-0.7,1.2-1.4,1.9-2c0.6-0.6,1.3-1.2,1.9-1.7c0.4-0.4,0.8-0.8,1.3-1.1c1.6-1.5,3.3-3,4.8-4.7
				c1.3-1.4,2.6-2.8,3.9-4.1c1.5-1.6,3.1-3.3,4.6-5c0.5-0.6,1-1.1,1.5-1.7c0.4-0.5,0.9-1,1.3-1.5c0.1-0.2,0.3-0.3,0.4-0.5
				 M110.1,179c-1.9,1.8-3.8,3.1-5.8,4c-1.5,0.7-3.1,1.3-4.7,1.3c-1.2,0-2.2-0.3-3.3-1c-0.8-0.5-1.5-1-2.3-1.5
				c-0.5-0.3-1-0.6-1.5-0.9l-1.2-0.8c-0.1-0.1-0.1-0.1-0.1-0.3c0-0.5,0-0.9,0-1.4l0-0.6c-0.1-1.7,0.2-3.4,0.5-4.9
				c0.8-3.5,2.3-6.1,4.6-7.9c0.7-0.6,1.9-1.3,3-1.3c0.6,0,1.2,0.2,1.8,0.6c0.4,0.3,0.9,0.6,1.3,0.8c0.9,0.5,1.7,1,2.2,1.9
				c0.5,0.8,0.9,1.6,1.4,2.4c0.9,1.6,1.9,3.2,2.8,4.8c0.4,0.7,0.7,1.3,1.1,2c0.1,0.3,0.3,0.7,0.6,1.1
				C110.7,178,110.6,178.5,110.1,179z M151,101.6c-0.2,1.1-0.4,2.4-0.3,3.7c0,1.9-0.3,3.6-0.6,5.5c-0.1,0.4-0.2,0.9-0.2,1.3
				c-0.2,1.2-0.4,2.3-0.5,3.5c-0.1,0.7-0.2,1.4-0.3,2.1c-0.1,0.7-0.2,1.4-0.4,2.1c-0.3,1.5-0.5,2.9-0.6,4.4c-0.1,0.5-0.1,1-0.2,1.4
				c-0.1,0.8-0.2,1.6-0.3,2.4c-0.3,2.6-1,5-1.9,7.7c-0.2,0.5-0.3,1-0.5,1.5c-0.1,0.4-0.3,0.9-0.5,1.3c-1.2,3-3,5.7-4.7,8.2l-0.5,0.8
				c-0.8,1.1-1.5,2.2-2.4,3.3c-1,1.4-2.1,2.7-3.2,3.9c-1.5,1.6-3,3.2-4.4,4.8c-1.8,2-3.7,4.1-5.6,6.1c-0.7,0.7-1.4,1.5-2.1,2.2
				c-1.3,1.3-3.1,3-4.9,4.6c-0.5,0.4-1,0.9-1.5,1.4c-0.1,0.1-0.2,0.1-0.2,0.2l26.1-34.8l-0.3-0.2l10.1-51.5c0.1,1.4,0.2,2.8,0.2,4.1
				c0,0.9,0,1.8,0.1,2.6C151.3,96.6,151.4,99.2,151,101.6z M115,72.5c0.1-0.4,0.3-0.8,0.4-1.2c0.1-0.3,0.2-0.7,0.4-1
				c0.3-1,0.7-2.1,1-3.2c0.3,0.3,0.6,0.6,0.9,0.8c0,0,0,0,0.1,0c0,0,0,0,0.1,0c0.8,0.4,1.7,0.2,2.4-0.5c0.1-0.1,0.3-0.3,0.4-0.5
				c0.4-0.5,0.8-0.9,1.3-1.2c0.2-0.1,0.3-0.2,0.5-0.4c1.4-1,2.8-2.1,4.2-3.4l0.8-0.8c0.1-0.1,0.2-0.2,0.3-0.3c2.6-2.5,5.2-5,7.9-7.3
				c2.1-1.9,3.9-3.4,5.4-4.8l1-0.9c0.3-0.2,0.5-0.5,0.8-0.7c1.7-1.6,3.4-3.2,5.1-4.9l0.7-0.7c1.9-2,4-4.1,5.8-6.3c0.9-1,1.9-2,2.9-3
				c1.1-1.1,2.3-2.2,3.3-3.5c-0.1,0.3-0.1,0.7-0.1,1c0,0.1,0,0.2,0,0.3c-0.2,1.2-0.3,2.4-0.6,3.5c-0.3,1.4-0.6,2.8-0.9,4.3
				c-0.7,3.3-1.5,6.6-2.2,9.9c-0.4,1.9-0.9,3.8-1.3,5.8l-0.3,1.3c-0.4,1.8-0.8,3.6-1.2,5.4c-0.7,3-1.3,6.1-1.9,9.2
				c-0.1,0.4-0.1,0.8-0.2,1.3c-0.3,1.7-0.6,3.5-1.4,5.1l-0.1,0l-0.1,0.5c-0.1,0.3-0.2,0.5-0.2,0.8L138,138.7l-26,34.7
				c-0.3-0.6-0.5-1.1-0.7-1.7c-0.6-2.1-2-3.8-3.2-5c-0.4-0.4-0.8-0.9-1.2-1.3c-0.1-0.1-0.2-0.2-0.3-0.3c-0.4-0.5-0.8-1-1.3-1.4
				c0,0,0,0,0,0c-0.2-0.2-0.4-0.4-0.6-0.5c0,0,0-0.2,0-0.2c0-0.2,0.1-0.4,0-0.6c-0.3-1.6-0.3-3.1-0.3-4.8c0-1,0-2.1-0.1-3.1
				c-0.1-1-0.1-2.1-0.1-3.1c0-1.7,0.1-3.5,0.2-5.4c0.1-1.7,0.1-3.5,0.2-5.2c0-1.5,0.1-3.1,0.1-4.7c0.1-2.3,0.3-4.8,0.7-7.4
				c0.2-1.3,0.2-2.7,0.3-4c0.1-1.5,0.1-3,0.4-4.4c0.5-3,0.9-6.1,1.2-9.1c0.3-2.5,0.6-5.1,1-7.7c0.4-3,1-6,1.6-9
				c0.1-0.3,0.1-0.5,0.2-0.8c0.4-1.8,0.7-3.6,1-5.5c0.1-0.6,0.2-1.1,0.3-1.7c0.4-1.7,0.8-3.4,1.2-5.1c0.1-0.4,0.2-0.8,0.3-1.1
				c0.2-1,0.5-1.9,0.7-2.9c0.1-0.4,0.2-0.7,0.2-1.1C114.3,74.9,114.6,73.7,115,72.5z M76.3,66.6c1.5-1,3.2-1.4,5-1.9
				c0.3-0.1,0.6-0.2,0.9-0.2c4.8-1.2,9-1.8,14.1-2c0.7-0.1,1.7-0.1,2.7-0.1c1.9,0,4,0.1,6,0.3c2.7,0.3,5.3,1.3,7.4,2.3
				c0.6,0.3,1.3,0.6,1.4,0.8c0.1,0.2-0.2,1-0.4,1.6c-0.8,2.2-1.3,4.6-1.7,6.8c-0.3,1.7-0.7,3.5-1.2,5.2c-0.8,2.6-1.3,5.3-1.8,7.9
				c0,0.2-0.1,0.4-0.1,0.6l-0.3,1.4c-0.3,1.6-0.6,3.1-1,4.7c-0.1,0.3-0.1,0.5-0.2,0.8c-0.5,2.4-1,4.8-1.4,7.2
				c-0.5,3.2-1,6.3-1.4,9.4c-0.4,3.4-0.8,6.9-1.1,10.8c-0.1,1.6-0.3,3.3-0.5,4.9c-0.2,1.6-0.4,3.2-0.5,4.8c-0.1,1.7-0.2,3.4-0.2,5.1
				c0,3,0,5.8-0.1,8.6c0,1.3-0.1,2.5-0.2,3.7c-0.1,1.3-0.1,2.6-0.2,3.9c-0.1,2.1,0,4.2,0.1,6.2c0,0.6,0.1,1.1,0.1,1.7
				c-2.3-0.7-4.6-0.3-7.2,1.3c-0.1,0.1-0.3,0.2-0.3,0.2c0-0.2-0.1-0.4-0.1-0.5c-0.1-0.9-0.4-1.8-0.6-2.7c-0.1-0.4-0.2-0.8-0.3-1.2
				c-0.4-1.7-0.5-3.4-0.6-5.4c0-1-0.2-1.9-0.3-2.8c-0.1-0.7-0.2-1.4-0.3-2c-0.3-2.8-0.6-6.1-1.1-9.4c-0.3-2-0.6-4.1-0.7-6
				c-0.2-1.7-0.3-3.5-0.6-5.3c-0.4-2.6-0.9-5.3-1.4-7.5c-0.1-0.5-0.2-1-0.3-1.5c-0.2-1-0.4-2-0.5-3.1c-0.1-0.8-0.3-1.6-0.4-2.5
				c-0.2-1.2-0.4-2.4-0.7-3.6l-0.1-0.2c-0.3-1.4-0.6-2.9-1-4.3c-0.5-2.2-0.9-4.5-1.3-6.7c-0.3-1.9-0.8-3.8-1.2-5.6
				c-0.3-1.2-0.6-2.4-0.8-3.6c-0.1-0.6-0.3-1.3-0.4-1.9c-0.1-0.6-0.3-1.2-0.5-1.8l-0.1-0.4c-0.4-1.2-0.8-2.4-0.8-3.7
				c0-1.2-0.4-2.2-0.8-3.2c-0.2-0.6-0.4-1.1-0.6-1.6c-0.2-0.7-0.3-1.3-0.5-2c-0.5-1.8-1-3.5-1.6-5.2L76,67.2c0-0.1,0-0.1-0.1-0.2
				C75.9,66.8,76,66.8,76.3,66.6z M32.4,74.8c-0.1-0.2-0.1-0.3-0.2-0.5l-0.5-1.9l-0.1,0c-0.4-1.3-0.6-2.6-0.9-3.9
				c-0.1-0.3-0.1-0.6-0.1-0.9c-0.1-0.6-0.2-1.2-0.4-1.8c-0.4-1.8-1-3.5-1.6-5.1c-0.4-1.2-0.9-2.4-1.2-3.6c-0.2-0.6-0.3-1.1-0.5-1.7
				c-0.5-1.6-1.2-3.3-1.8-4.8c-1-2.5-2-5.2-2.7-7.8c-0.3-1.3-0.7-2.5-1.1-3.7c-0.5-1.6-1-3.1-1.3-4.8c-0.1-0.5-0.2-1.1-0.3-1.6
				c0-0.1,0-0.2-0.1-0.3c0.9,0.7,1.9,1.4,2.8,2c2.1,1.4,4.2,2.9,6,4.8c0.5,0.5,0.9,0.9,1.4,1.3c1.4,1.3,3,2.4,4.5,3.5
				c1.3,1,2.7,1.9,3.9,3c2.7,2.2,5.5,4.4,8.2,6.4c2.7,2,5.5,4.2,8.2,6.4c0.9,0.8,1.9,1.4,2.8,2c0.5,0.4,1.1,0.7,1.6,1.1l0.8,0.5
				c2.3,1.6,4.7,3.4,7.2,4.8c0.1,0.1,0.2,0.1,0.2,0.1c0.2,0.1,0.2,0.2,0.2,0.2c0,1.1,0.6,1.5,1.2,1.7c0.2,0.1,0.4,0.1,0.5,0.1
				c0.1,0,0.2,0,0.3,0.1c0.2,0,0.3,0.1,0.4,0.1c0.1,0,0.2,0,0.3,0c0.7-0.2,0.9-0.8,1-1.1c0-0.1,0-0.1,0-0.1c0.1-0.2,0.6-0.5,1-0.8
				c0.4-0.2,0.7-0.4,0.9-0.4c0.1,0.1,0.1,0.2,0.2,0.4l0.3,0.8c0.1,0.3,0.2,0.6,0.3,0.8c0.2,0.6,0.4,1.2,0.6,1.9
				c0.4,1.4,0.8,2.9,1.2,4.3c0.7,2.5,1.4,5,2,7.5c0.5,2,0.9,4.1,1.3,6.1c0.4,2.3,0.9,4.6,1.5,6.9c0.2,0.8,0.4,1.5,0.6,2.3
				c0.9,3.2,1.6,6.5,2.2,9.8c0.3,1.8,0.7,3.7,1.1,5.5c0.8,3.7,1.4,7.5,2,11.2c0.2,1.1,0.3,2.2,0.5,3.3c0.4,2.5,0.6,5,0.9,7.5
				c0.2,1.9,0.4,3.9,0.6,5.8c0.3,2,0.6,4,0.8,6c0.2,1.5,0.4,2.9,0.6,4.4l0.1,0.5c0.1,0.8,0.2,1.6,0.2,2.3c0,4.2,0.4,7.3,1.3,10.2
				c0.1,0.5-0.1,0.8-0.5,1.4l-0.1,0.1c-2,3.1-2.6,6.5-2.8,9.4l-37.8-38.4L32.6,75.6C32.6,75.3,32.5,75,32.4,74.8z M43.5,141.8
				c-0.9-0.9-2.2-2.4-2.7-4.1c-0.1-0.3-0.2-0.5-0.4-0.8c-0.2-0.4-0.5-0.7-0.8-1c-0.2-0.2-0.4-0.5-0.6-0.7c-1.2-1.7-1.6-3.8-2-6
				l-0.1-0.5c-0.1-0.5-0.2-1-0.2-1.5c-0.2-1.6-0.3-3.1-0.4-4.7c-0.1-1.8-0.3-3.6-0.6-5.5c-0.1-0.9-0.3-1.9-0.5-2.8
				c-0.2-1-0.4-2-0.6-3.1c-0.2-1.5-0.3-3-0.3-4.4c-0.1-1.5-0.1-3-0.3-4.5c-0.1-1.1-0.3-2.1-0.4-3.2c-0.1-0.9-0.2-1.8-0.2-2.7
				c-0.1-0.8-0.1-1.5-0.2-2.3c0-0.5-0.1-0.9,0-1.4c0-0.5,0-1.1,0-1.6c0-1.4-0.2-2.9-0.4-4.3l14.8,52l1.4-0.4l-1,1l36.9,37.5
				c-0.9-0.5-1.8-1.1-2.7-1.6c-1.2-0.7-2.4-1.5-3.6-2.1c-0.4-0.2-0.8-0.4-1.1-0.7c-1.1-0.7-2-1.6-3-2.5c-0.6-0.5-1.2-1.1-1.8-1.6
				c-0.6-0.5-1.3-1-2-1.6c-0.3-0.2-0.6-0.5-0.9-0.7c-1.1-0.9-2.1-1.7-3.1-2.7c-1-1.1-2.2-2-3.4-2.9c-0.8-0.7-1.7-1.4-2.5-2.1
				c-0.7-0.6-1.4-1.2-2.1-1.7c-0.9-0.7-1.8-1.3-2.5-2.1c-1.1-1.2-2.2-2.2-3.4-3.1c-0.9-0.7-1.8-1.5-2.6-2.3
				c-1.3-1.3-2.5-2.6-3.7-3.9C45.6,144,44.6,142.9,43.5,141.8z"/>
			<path style="fill:#3C3B32;" d="M54.8,77.4c0.7-0.5,1.3-1,2.2-1c0.3,0,1.1-0.2,1.4-1.5c0.1-0.3,0.1-1.1-0.9-1.7
				C57,72.9,56.5,72.5,56,72c-1.6-1.7-3.5-3.2-5.2-4.6c-0.9-0.7-1.8-1.4-2.6-2.2c-0.9-0.8-1.9-1.5-2.9-2.2c-0.8-0.6-1.7-1.3-2.5-2
				l-1-0.9c-1.3-1.1-2.6-2.2-3.9-3.2c-0.7-0.6-1.4-1.1-2.1-1.7c-0.1-0.1-0.3-0.2-0.5-0.3c0,0-0.1-0.1-0.2-0.1
				c-0.2-0.1-0.4-0.2-0.7-0.2c-0.3,0-0.5,0.1-0.8,0.2c-0.1,0.1-0.2,0.1-0.2,0.2c0,0,0,0,0,0c-0.1,0.1-0.1,0.1-0.2,0.2
				c0,0,0,0.1-0.1,0.1c0,0-0.1,0.1-0.1,0.1c0,0,0,0.1-0.1,0.1c0,0,0,0.1,0,0.1c0,0,0,0.1,0,0.1c0,0,0,0.1,0,0.1c0,0,0,0,0,0
				c0,0.2,0,0.4-0.1,0.5l0,0.2c0,0.8,0.2,1.4,0.5,2l0,0.1c0.5,1.4,1,2.7,1.6,4.1c1,2.6,2.1,5.3,3,8.1c0.3,0.9,0.6,1.8,0.9,2.7
				c0.3,0.8,0.5,1.7,0.8,2.6c0.5,1.8,1,3.7,1.8,5.5c0.1,0.2,0.2,0.3,0.3,0.5c0,0,0,0,0,0c0.2,0.3,0.4,0.5,0.5,0.7
				c0.2,0.2,0.4,0.3,0.5,0.3c0,0,0,0,0,0c0,0,0.1,0,0.1,0c0,0,0.1,0,0.1,0c0,0,0.1,0,0.1,0c0.1,0,0.1,0,0.2,0c0,0,0.1,0,0.1,0
				c0,0,0.1,0,0.1,0l0,0c0.6,0,1.2-0.3,1.7-0.8c0.4-0.4,0.8-0.7,1.3-0.9c1-0.5,2-1,2.9-1.4c1.6-0.7,3.2-1.4,4.7-2.5
				C54.5,77.6,54.6,77.5,54.8,77.4z M44.3,79.8c-0.2,0.1-0.4,0.1-0.4,0.1c-0.1,0-0.3-0.4-0.3-0.5c-1.6-5.7-3.3-10.6-5-15
				c-0.3-0.7-0.5-1.4-0.8-2.1c-0.3-0.8-0.6-1.6-1-2.5c0.8,0.7,1.6,1.3,2.3,2c1.2,1.2,2.6,2.3,3.8,3.3c0.8,0.7,1.7,1.4,2.5,2.2
				l0.9,0.8c2.5,2.2,5.1,4.5,8.1,6.4c0,0,0,0,0,0c0,0,0,0,0,0C51.5,76.3,48.3,77.9,44.3,79.8z"/>
			<path style="fill:#57504F;" d="M135.4,65.6C135.5,65.5,135.6,65.5,135.4,65.6L135.4,65.6z"/>
			<path style="fill:#3C3B32;" d="M129.3,70.5c0.9,0.6,1.9,1.1,2.8,1.7c1.5,0.9,2.9,1.8,4.4,2.7l0.5,0.3c1.2,0.7,2.3,1.4,3.2,2.4
				c0.4,0.4,0.8,0.9,1.4,0.9h0c0.4,0,0.8-0.2,1.1-0.5c0.1-0.1,0.2-0.2,0.3-0.3c0.8-0.8,0.9-1.8,1-2.6c0-0.2,0-0.4,0.1-0.7
				c0.2-1.3,0.5-2.6,0.9-3.9c0.2-0.9,0.4-1.7,0.6-2.6c0.1-0.6,0.2-1.2,0.4-1.8c0.4-1.8,0.7-3.6,1.2-5.4c0.2-0.6,0.3-1.2,0.5-1.8
				c0.3-1.1,0.4-2.2,0.5-3.2c0.2-1.7,0.3-3.3,1.3-4.7c0.2-0.4,0.3-0.8,0.1-1.3c-0.2-0.5-0.6-1-1.2-1.2l-0.1-0.1l-0.2,0
				c-0.8,0.1-1.1,0.6-1.3,0.9c-0.1,0.2-0.3,0.5-0.4,0.7c-1,1.6-2.3,2.9-3.7,4.2c-0.3,0.2-0.5,0.5-0.8,0.7c-0.7,0.7-1.5,1.5-2.3,2.2
				c0,0,0,0,0,0c-1.4,1.3-2.8,2.7-4.1,4.1l-0.5,0.5c-0.5,0.5-0.9,1-1.4,1.4c-1.4,1.4-2.8,2.7-4.5,3.8c-0.7,0.5-1.1,1-1.1,1.6
				C128.2,69.5,128.5,70,129.3,70.5z M135,65.9C134.9,66,134.9,66.1,135,65.9L135,65.9z M135.3,65.7
				C135.3,65.7,135.3,65.7,135.3,65.7C135.3,65.7,135.3,65.7,135.3,65.7c0.8-0.8,1.7-1.5,2.5-2.3c0.6-0.6,1.3-1.3,1.9-1.9
				c1.8-1.8,3.7-3.7,5.6-5.8c-0.1,1.8-0.3,3.3-0.9,4.8c-0.6,1.3-0.8,2.7-1,3.8c-0.1,0.6-0.2,1.3-0.3,1.9c-0.4,1.9-0.8,3.8-1.3,5.7
				c-0.2,0.9-0.4,1.8-0.7,2.7c-1-0.8-2.1-1.4-3.2-2c-1-0.6-2-1.2-2.9-1.8c-0.8-0.6-1.8-1.2-2.9-1.8c0,0,0,0-0.1,0
				C133.1,67.7,134.2,66.7,135.3,65.7z"/>
		</g>
		<path style="fill:#57504F;" d="M91.9,89.4c0.1,0.1,0.2,0.2,0.2,0.3c0,0.1,0.1,0.1,0.1,0.1s0,0,0.1-0.1c0-0.1,0.1-0.2,0.2-0.3
			c0.2-0.3,0.4-0.7,0.5-1.1c0.4-0.9,0.6-2.2,0.6-3.4c0-1.2-0.2-2.5-0.6-3.4c-0.2-0.5-0.4-0.9-0.5-1.1c-0.1-0.1-0.2-0.2-0.2-0.3
			c-0.1-0.1-0.1-0.1-0.1-0.1s0,0-0.1,0.1c0,0.1-0.1,0.2-0.2,0.3c-0.2,0.3-0.4,0.7-0.5,1.1c-0.4,0.9-0.6,2.2-0.6,3.4
			c0,1.2,0.2,2.5,0.6,3.4C91.5,88.7,91.7,89.1,91.9,89.4z"/>
		<path style="fill:#57504F;" d="M96,83.1c0.2,0.5,0.4,1,0.6,1.3c0.2,0.3,0.3,0.5,0.3,0.5s0.1-0.2,0.3-0.5c0.2-0.3,0.3-0.8,0.5-1.3
			c0.3-1.1,0.5-2.6,0.4-4c-0.1-1.4-0.4-2.9-0.8-3.9c-0.2-0.5-0.4-1-0.6-1.3c-0.2-0.3-0.3-0.5-0.3-0.5s-0.1,0.2-0.3,0.5
			c-0.2,0.3-0.3,0.8-0.5,1.3c-0.3,1.1-0.5,2.6-0.4,4C95.3,80.6,95.6,82,96,83.1z"/>
	</g>
</g>
<path style="fill:#3C3B32;" d="M145.3,136.9c0,1.4-0.4,5.9-1.8,5.9l-100.8-1.1c-1.4,0-3.9-3.6-3.9-5l-4.9-9.2
	c0-1.4-1.8-17.5-0.6-16.1l117.9,6.2c1.4,0,0.3,2.6,0.3,4L145.3,136.9z"/>
<circle style="fill:#FFFFFF;" cx="72.3" cy="128.7" r="7.9"/>
<circle style="fill:#FFFFFF;" cx="124" cy="128.7" r="7.9"/>
<path style="fill:#3C3B32;" d="M73.5,134.2L73.5,134.2c1.6,0,3.7-2.4,3.7-4.2c0-0.1,0-0.2,0-0.3c-0.2-1.7-2.1-3.3-4-3.3h0
	c-1.9,0-3.4,1.5-3.4,3.4c0,1.4,0.4,2.6,1.2,3.4C71.6,133.8,72.5,134.2,73.5,134.2z M72.7,129.7c0.1-0.2,0.4-0.2,0.6-0.2
	c0.6,0.1,0.6,0.2,0.6,0.4c0,0.7-0.2,1.1-0.3,1.3c-0.1,0.1-0.2,0.1-0.3,0.1c-0.2,0-0.7-0.5-0.7-1.1C72.6,130,72.6,129.8,72.7,129.7z"
	/>
<path style="fill:#3C3B32;" d="M122.5,133.5L122.5,133.5c1.2,0,2.7-0.4,3.5-1.4c0.5-0.6,0.7-1.3,0.6-2.1c0-2.1-1.6-4.2-3.4-4.3
	c-1.9-0.1-4,2.1-4.1,4.3c0,0.8,0.4,1.8,1.1,2.5C121,133.1,121.8,133.5,122.5,133.5z M122.8,129.3c0.1-0.1,0.3-0.2,0.4-0.2h0
	c0.1,0,0.1,0,0.1,0c0,0.1,0,0.2,0,0.4c0,0.3,0,0.7,0.2,1.1c0,0.1-0.1,0.2-0.5,0.2c-0.6,0-0.6-0.1-0.6-0.3
	C122.3,130,122.5,129.5,122.8,129.3z"/>
<path style="fill:#3C3B32;" d="M190.5,126.3c8.4-1.2-7.8,16.7-20.2,18.5c-12.4,1.8-23.4-3.6-24.7-12c-1.2-8.4,8.9-9.7,21.2-11.5
	C179.2,119.5,185.8,127,190.5,126.3z"/>
<path style="fill:#3C3B32;" d="M196.4,146.5c9.6,2.8-14.3,6.8-28.3,2.7c-14-4.1-24.1-11.9-22.5-17.5c1.6-5.6,13-2.2,27,1.9
	C186.6,137.7,191.1,145,196.4,146.5z"/>
</svg>
